<?xml version="1.0" encoding="UTF-8"?><svg id="Camada_1" xmlns="http://www.w3.org/2000/svg" viewBox="0 0 25 25.42"><defs><style>.cls-1{fill:#8e1913;}</style></defs><g id="sAI9mx"><path class="cls-1" d="m11.76,3.92v1.84c-1.97.05-3.62.87-4.89,2.52-.81,1.04-1.3,2.26-1.43,3.62-.25,2.62.63,4.74,2.52,6.41.15-.54.28-1.05.43-1.58,1.13,1.29,2.25,2.57,3.38,3.86-1.59.42-3.16.84-4.76,1.26.01-.05.02-.09.03-.13.13-.49.26-.97.39-1.46.02-.08,0-.12-.06-.16-1.85-1.35-3.05-3.19-3.5-5.57-.49-2.59,0-4.98,1.46-7.1,1.16-1.69,2.7-2.77,4.59-3.26.57-.15,1.15-.22,1.74-.23.03,0,.06,0,.1,0Z"/><path class="cls-1" d="m13.24,21.5v-1.84c1.93-.05,3.55-.83,4.82-2.42.85-1.06,1.35-2.3,1.51-3.69.31-2.81-.96-5.19-2.53-6.41-.14.51-.27,1.02-.42,1.55-1.13-1.29-2.25-2.57-3.38-3.86,1.59-.42,3.16-.84,4.75-1.26-.01.05-.02.09-.03.12-.13.49-.26.98-.4,1.47-.02.08,0,.12.06.16,1.89,1.37,3.11,3.26,3.52,5.69.53,3.16-.29,5.89-2.43,8.12-1.15,1.2-2.53,1.92-4.09,2.22-.42.08-.84.09-1.27.13-.04,0-.07,0-.12,0Z"/></g><circle class="cls-1" cx="12.5" cy="12.71" r="3.19"/></svg>