<?xml version="1.0" encoding="UTF-8"?><svg id="Camada_1" xmlns="http://www.w3.org/2000/svg" viewBox="0 0 177 180"><defs><style>.cls-1,.cls-2{fill:#242654;}.cls-2{opacity:.5;}</style></defs><g id="LJUbLN.tif"><path class="cls-2" d="m88.45,6.11c4.9-.12,9.23,1.25,13.19,3.87,4.11,2.72,8.27,5.36,12.27,8.23,2.38,1.7,4.94,2.61,7.76,3.14,4.59.86,9.17,1.81,13.73,2.83,10.64,2.37,16.87,9.08,19.05,19.66,1.06,5.12,1.99,10.27,3.09,15.38.26,1.23.78,2.47,1.46,3.53,2.98,4.6,6.11,9.1,9.08,13.7,5.75,8.91,5.78,17.94.13,26.89-2.86,4.53-5.99,8.88-8.86,13.4-.86,1.36-1.49,2.96-1.85,4.54-1.13,4.98-2.04,10-3.1,15-2.31,10.84-8.93,17.38-19.78,19.63-5.06,1.05-10.14,2.01-15.18,3.13-1.34.3-2.7.87-3.85,1.62-4.56,2.93-8.99,6.05-13.56,8.97-8.93,5.72-17.95,5.69-26.91.07-3.13-1.96-6.3-3.9-9.2-6.18-4.2-3.31-8.96-4.92-14.14-5.76-4.06-.66-8.14-1.43-12.09-2.55-9.09-2.57-14.71-8.65-16.85-17.81-1.27-5.45-2.22-10.97-3.44-16.44-.31-1.4-.91-2.81-1.69-4.02-2.82-4.41-5.77-8.73-8.68-13.08-5.97-8.94-6-18.72-.04-27.7,2.62-3.95,5.21-7.92,7.95-11.79,1.61-2.28,2.43-4.77,2.94-7.46.88-4.65,1.82-9.3,2.86-13.92,2.39-10.64,9.11-16.84,19.69-19.02,5.12-1.05,10.26-2.04,15.36-3.16,1.23-.27,2.46-.81,3.52-1.49,4.91-3.17,9.73-6.49,14.65-9.66,3.82-2.46,8.03-3.7,12.48-3.53Zm60.07,83.86c.33-32.67-26.57-59.77-59.36-60.12-33.34-.35-60.47,26.83-60.73,59.55-.27,33.33,26.97,60.33,59.5,60.61,33.31.29,60.87-27.09,60.6-60.04Z"/><path class="cls-1" d="m88.52,41.9c26.58.11,48.11,21.78,48.02,48.33-.09,26.26-21.9,47.84-48.24,47.73-26.42-.11-47.92-21.83-47.82-48.33.09-26.18,21.89-47.84,48.05-47.73Zm-16.63,37.75c-2.81,2.89-5.49,5.65-8.27,8.51,5.07,5.05,10.3,10.26,15.53,15.48,3.48,3.47,6.73,3.48,10.22,0,7.66-7.66,15.31-15.33,22.96-23,.38-.38.73-.8,1.12-1.22-2.82-2.71-5.55-5.36-8.61-8.3-6.75,6.78-13.67,13.73-20.77,20.86-4.06-4.11-8.12-8.21-12.17-12.31Z"/></g></svg>