<?xml version="1.0" encoding="UTF-8"?><svg id="Camada_1" xmlns="http://www.w3.org/2000/svg" viewBox="0 0 25 25.42"><defs><style>.cls-1,.cls-2{fill:#164620;}.cls-2{opacity:.5;}</style></defs><g id="LJUbLN.tif"><path class="cls-2" d="m12.49,1.9c.63-.02,1.19.16,1.7.5.53.35,1.07.69,1.58,1.06.31.22.64.34,1,.4.59.11,1.18.23,1.77.37,1.37.31,2.17,1.17,2.46,2.53.14.66.26,1.32.4,1.98.03.16.1.32.19.45.38.59.79,1.17,1.17,1.77.74,1.15.75,2.31.02,3.47-.37.58-.77,1.15-1.14,1.73-.11.18-.19.38-.24.59-.15.64-.26,1.29-.4,1.93-.3,1.4-1.15,2.24-2.55,2.53-.65.14-1.31.26-1.96.4-.17.04-.35.11-.5.21-.59.38-1.16.78-1.75,1.16-1.15.74-2.31.73-3.47,0-.4-.25-.81-.5-1.19-.8-.54-.43-1.15-.63-1.82-.74-.52-.08-1.05-.18-1.56-.33-1.17-.33-1.9-1.11-2.17-2.3-.16-.7-.29-1.41-.44-2.12-.04-.18-.12-.36-.22-.52-.36-.57-.74-1.13-1.12-1.69-.77-1.15-.77-2.41,0-3.57.34-.51.67-1.02,1.02-1.52.21-.29.31-.61.38-.96.11-.6.24-1.2.37-1.79.31-1.37,1.17-2.17,2.54-2.45.66-.14,1.32-.26,1.98-.41.16-.03.32-.1.45-.19.63-.41,1.25-.84,1.89-1.25.49-.32,1.03-.48,1.61-.46Zm7.74,10.81c.04-4.21-3.43-7.71-7.65-7.75-4.3-.05-7.8,3.46-7.83,7.68-.03,4.3,3.48,7.78,7.67,7.81,4.29.04,7.85-3.49,7.81-7.74Z"/><path class="cls-1" d="m12.5,6.51c3.43.01,6.2,2.81,6.19,6.23-.01,3.39-2.82,6.17-6.22,6.15-3.41-.01-6.18-2.82-6.17-6.23.01-3.38,2.82-6.17,6.2-6.15Zm-2.14,4.87c-.36.37-.71.73-1.07,1.1.65.65,1.33,1.32,2,2,.45.45.87.45,1.32,0,.99-.99,1.97-1.98,2.96-2.97.05-.05.09-.1.14-.16-.36-.35-.72-.69-1.11-1.07-.87.87-1.76,1.77-2.68,2.69-.52-.53-1.05-1.06-1.57-1.59Z"/></g></svg>