<?xml version="1.0" encoding="UTF-8"?><svg id="Camada_1" xmlns="http://www.w3.org/2000/svg" viewBox="0 0 25 25.42"><defs><style>.cls-1{fill:#242654;}</style></defs><path class="cls-1" d="m5.9,17.87c-.03-.39.18-.71.46-1,1.58-1.58,3.15-3.15,4.73-4.72,1.84-1.84,3.69-3.67,5.52-5.52.14-.14.2-.12.32,0,.54.55,1.09,1.09,1.63,1.64.19.19.21.16,0,.37-1.05,1.05-2.09,2.1-3.14,3.15-2.31,2.31-4.63,4.61-6.94,6.92-.3.3-.61.55-1.04.6-.82.1-1.55-.56-1.55-1.45Z"/><path class="cls-1" d="m15.73,3.66s.11-.07.17-.13c.31-.29.6-.59.91-.88,1.05-.98,2.81-.95,3.81.1.59.62,1.21,1.2,1.81,1.81,1.13,1.14,1.14,2.79.03,3.95-.31.33-.65.63-1,.96-1.89-1.91-3.79-3.84-5.74-5.81Z"/><path class="cls-1" d="m14.87,4.6c.32.31.64.63.95.94.07.07.07.11,0,.18-3.38,3.37-6.76,6.74-10.14,10.11-.1.1-.2.19-.3.28-.31.25-.73.22-1-.05-.26-.26-.28-.72-.02-1,.33-.36.69-.7,1.04-1.05,2.95-2.95,5.91-5.9,8.87-8.85.19-.19.4-.38.6-.57Z"/><path class="cls-1" d="m9.68,21.01c-.31,0-.54-.13-.68-.41-.14-.28-.09-.54.1-.78.08-.1.16-.19.25-.27,3.35-3.34,6.7-6.68,10.05-10.03.03-.03.07-.06.09-.1.07-.11.12-.1.21,0,.26.27.53.54.81.8.09.09.12.15,0,.25-2.63,2.62-5.26,5.24-7.88,7.86-.8.8-1.6,1.61-2.4,2.41-.15.16-.32.27-.56.26Z"/><path class="cls-1" d="m8.39,21.82c-2.22.55-4.44,1.11-6.69,1.67.56-2.24,1.12-4.48,1.67-6.69.2.15.39.33.6.45.21.12.46.18.71.27,0,.11-.02.25-.03.39-.06,1.55,1.42,2.8,2.9,2.59.14-.02.18.01.21.15.07.4.23.76.53,1.05.03.03.06.06.09.1,0,0,0,.02,0,.03Z"/></svg>