<?xml version="1.0" encoding="UTF-8"?><svg id="Camada_1" xmlns="http://www.w3.org/2000/svg" viewBox="0 0 26.36 26.93"><defs><style>.cls-1{fill:#f3f7fb;}.cls-2{fill:#fff;}.cls-3{fill:#98b8db;}.cls-4{fill:#a8c7e9;}.cls-5{fill:#a4c1e0;}.cls-6{fill:#cbdcee;}.cls-7{fill:#635592;}.cls-8{fill:#2d2d7a;}.cls-9{fill:#282359;}</style></defs><circle class="cls-2" cx="12.04" cy="14.08" r="10.18"/><g id="rifLl5.tif"><path class="cls-9" d="m25.29,13.89v.57s-.04.08-.05.12c-.05.36-.08.73-.15,1.08-.22,1.09-.54,2.16-1.04,3.16-.66,1.3-1.51,2.46-2.58,3.47-.74.69-1.54,1.28-2.41,1.77-1.55.87-3.23,1.35-4.99,1.5-.68.06-1.38-.03-2.07-.05-.07-.09-.13-.18-.2-.26-1.79-1.79-3.58-3.58-5.36-5.37-.07-.07-.14-.15-.21-.23.12,0,.24,0,.35,0,3.79,0,7.57,0,11.36,0,.12,0,.24,0,.35,0,.06-.01.13-.02.19-.03.01-.02.02-.04.04-.05,0-.52,0-1.04,0-1.56,0-1.72,0-3.44,0-5.16,0-.02,0-.04,0-.06-.01,0-.02,0-.03.01-.01.02-.03.03-.04.05-.43.52-.86,1.04-1.29,1.55-.01.09-.04.18-.04.27,0,1.17,0,2.35,0,3.52-3.16,0-6.33,0-9.49,0,0-.12,0-.24,0-.35,0-3.03,0-6.07,0-9.1,2.79,0,5.57,0,8.36,0,.12,0,.23-.02.35-.04.39-.46.79-.92,1.18-1.38.08.05.16.09.23.15.19.17.36.34.55.51-.18.24-.36.49-.55.72-.74.9-1.48,1.79-2.23,2.69-.6.73-1.21,1.45-1.82,2.17-.02.03-.03.06-.05.09l-.19.2s-.03.06-.05.09c-.06.06-.12.13-.19.19-.01.01-.02.03-.04.04-.08.15-.15.08-.23,0-.35-.35-.71-.7-1.06-1.04-.02-.01-.03-.02-.05-.04-.09-.09-.19-.19-.28-.28,0-.16-.09-.24-.24-.24-.49-.48-.97-.95-1.46-1.43-.02-.01-.03-.02-.05-.04-.02-.02-.03-.03-.05-.05-.02,0-.03,0-.05,0-.02,0-.05,0-.07.02-.44.45-.89.9-1.33,1.36,1.59,1.59,3.19,3.19,4.78,4.78.01.01.02.03.03.03.07,0,.17.03.21-.01.24-.27.46-.55.69-.82.06-.06.12-.13.18-.19.34-.38.68-.75,1.01-1.14.51-.62,1.01-1.25,1.52-1.87.64-.79,1.27-1.58,1.91-2.37.51-.63,1.02-1.26,1.53-1.89.12.08.25.13.35.23,1.52,1.51,3.03,3.02,4.54,4.53.08.08.17.13.26.19Z"/><path class="cls-8" d="m25.29,13.89c-.09-.06-.19-.12-.26-.19-1.51-1.51-3.02-3.02-4.54-4.53-.1-.1-.23-.15-.35-.23,0-.04,0-.09-.02-.1-.5-.4-1-.8-1.5-1.2-.14.13-.26.23-.37.34-.18-.17-.36-.35-.55-.51-.07-.06-.15-.1-.23-.15-.04,0-.09,0-.13,0-.08-.01-.17-.04-.25-.04-3.57,0-7.14,0-10.71,0-.08,0-.16.03-.24.05.01.06.02.12.03.18-.01.1-.04.2-.04.3,0,3.82,0,7.64,0,11.46,0,.1.02.2.04.3,0,.01,0,.03.01.04.02.02.03.04.05.06.07.08.13.15.21.23,1.79,1.79,3.58,3.58,5.36,5.37.08.08.14.17.2.26-.46-.07-.93-.13-1.39-.21-.38-.07-.76-.17-1.14-.26-.15-.06-.3-.12-.45-.17-.33-.14-.66-.29-.99-.43l-.57-.29c-.39-.24-.78-.48-1.18-.72l-.1-.07c-.32-.26-.66-.51-.97-.78-.72-.62-1.35-1.34-1.92-2.11-.02-.03-.05-.07-.07-.1-.26-.42-.51-.85-.77-1.27-.07-.14-.14-.28-.21-.42-.15-.35-.31-.69-.46-1.04-.04-.13-.09-.25-.13-.38-.11-.56-.35-1.1-.42-1.67-.04-.32-.08-.65-.11-.97-.01-.25-.04-.5-.04-.75,0-.5,0-1.01.05-1.51.05-.53.05-1.06.23-1.57.22-.63.38-1.28.62-1.9.51-1.31,1.27-2.47,2.21-3.52,1.34-1.49,2.95-2.58,4.83-3.27.8-.3,1.63-.51,2.49-.6.29-.03.58-.09.87-.14.14,0,.28,0,.43,0h.76c.14,0,.28,0,.43,0,.05.01.1.04.15.04.48.07.98.1,1.45.21,1.21.26,2.38.67,3.47,1.27.82.46,1.58,1,2.28,1.64,1.57,1.44,2.71,3.16,3.35,5.21.13.41.25.83.38,1.24.03.03.06.06.08.09-.03.07-.09.15-.08.21.05.39.12.77.19,1.16.01.08.03.16.04.24v1.23Z"/><path class="cls-5" d="m6.18,19.61c2.45,0,4.9,0,7.35,0,1.49,0,2.98,0,4.47,0,.1,0,.2.03.3.04-.12,0-.24,0-.35,0-3.79,0-7.57,0-11.36,0-.12,0-.24,0-.35,0-.02-.02-.03-.04-.05-.06Z"/><path class="cls-3" d="m7.6,18.23c-.02-.07-.05-.13-.05-.2,0-3.09,0-6.17,0-9.26,0-.02,0-.03,0-.05.01,0,.02,0,.04,0,0,3.03,0,6.07,0,9.1,0,.12,0,.24,0,.35,0,.01,0,.03,0,.04Z"/><path class="cls-7" d="m7.6,18.23s0-.03,0-.04c3.16,0,6.33,0,9.49,0,0,.01,0,.03,0,.04-3.17,0-6.33,0-9.5,0Z"/><path class="cls-7" d="m7.59,8.73s-.02,0-.04,0c.06-.01.11-.04.17-.04,2.83,0,5.67,0,8.5,0,.02,0,.05,0,.07,0-.12.01-.23.04-.35.04-2.79,0-5.57,0-8.36,0Z"/><path class="cls-6" d="m17.1,18.23s0-.03,0-.04c0-1.17,0-2.35,0-3.52,0-.09.03-.18.04-.27,0,1.2,0,2.41,0,3.61,0,.07-.03.15-.05.22Z"/><path class="cls-7" d="m11.52,12.8c-.08-.08-.16-.16-.24-.24.16,0,.24.08.24.24Z"/><path class="cls-7" d="m13.99,16.39c-.03-.15.08-.16.18-.19-.06.06-.12.13-.18.19Z"/><path class="cls-1" d="m18.52,12.85s-.03,0-.04,0c0-.02,0-.03,0-.05.01,0,.02,0,.03-.01,0,.02,0,.04,0,.06Z"/><path class="cls-7" d="m9.73,11.05s-.03,0-.05,0c.02,0,.03,0,.05,0Z"/><path class="cls-7" d="m11.85,13.12s-.03-.02-.05-.04c.02.01.03.02.05.04Z"/><path class="cls-7" d="m9.82,11.13s-.03-.02-.05-.04c.02.01.03.02.05.04Z"/><path class="cls-1" d="m18.48,19.62s.02-.04.04-.05c-.01.02-.02.04-.04.05Z"/><path class="cls-7" d="m6.17,7.5c0,.06,0,.13,0,.19,0,3.89,0,7.77,0,11.66,0,.07,0,.14,0,.21-.01-.1-.04-.2-.04-.3,0-3.82,0-7.64,0-11.46,0-.1.02-.2.04-.3Z"/><path class="cls-4" d="m17.35,7.3c-.46,0-.91,0-1.37,0-3.28,0-6.56,0-9.84,0,.08-.02.16-.05.24-.05,3.57,0,7.14,0,10.71,0,.08,0,.17.03.25.04Z"/><path class="cls-7" d="m25.05,10.95s.06.06.08.09c-.03-.03-.06-.06-.08-.09Z"/></g></svg>